<?xml version="1.0" encoding="UTF-8" ?>
<!DOCTYPE svg PUBLIC "-//W3C//DTD SVG 1.1//EN" "http://www.w3.org/Graphics/SVG/1.1/DTD/svg11.dtd">
<svg width="192pt" height="51pt" viewBox="0 0 192 51" version="1.1" xmlns="http://www.w3.org/2000/svg">
<g id="#8f1a7eff">
<path fill="#8f1a7e" opacity="1.00" d=" M 6.77 6.79 C 12.16 1.54 20.10 0.41 27.31 0.39 C 19.83 8.03 14.34 18.80 16.16 29.73 C 17.11 39.86 26.65 45.93 35.09 49.71 C 26.38 50.78 16.71 50.84 9.11 45.85 C 2.66 41.57 0.31 33.39 0.46 26.01 C 0.24 19.19 1.60 11.67 6.77 6.79 Z" />
</g>
<g id="#f6ad07ff">
<path fill="#f6ad07" opacity="1.00" d=" M 34.69 0.78 C 40.70 1.91 46.85 4.46 50.29 9.79 C 54.84 17.00 54.68 26.17 53.14 34.26 C 51.40 42.78 43.51 48.80 35.09 49.71 C 26.65 45.93 17.11 39.86 16.16 29.73 C 17.07 32.75 18.58 35.96 21.74 37.14 C 27.14 39.08 35.01 38.41 37.46 32.37 C 39.27 27.11 39.34 20.61 35.99 15.94 C 32.67 12.10 27.14 12.65 22.59 12.89 C 27.01 11.39 31.69 9.48 34.55 5.60 C 35.69 4.15 35.58 2.31 34.69 0.78 Z" />
</g>
<g id="#ffffffff">
<path fill="#ffffff" opacity="1.00" d=" M 65.21 13.41 C 66.89 12.74 68.68 12.45 70.48 12.34 C 70.53 19.81 70.48 27.28 70.50 34.75 C 75.00 34.75 79.50 34.75 84.00 34.75 C 84.00 36.58 84.00 38.42 84.00 40.25 C 77.58 40.25 71.17 40.25 64.75 40.25 C 65.03 31.31 64.17 22.30 65.21 13.41 Z" />
<path fill="#ffffff" opacity="1.00" d=" M 124.28 12.37 C 125.96 12.62 127.91 12.27 129.31 13.48 C 129.81 14.67 130.10 15.92 130.20 17.24 C 128.21 17.25 126.23 17.25 124.24 17.25 C 124.24 15.62 124.26 14.00 124.28 12.37 Z" />
<path fill="#ffffff" opacity="1.00" d=" M 165.76 12.35 C 167.51 12.44 169.24 12.72 170.88 13.35 C 171.61 19.84 171.17 26.40 171.19 32.91 C 171.22 36.47 168.28 39.15 165.02 39.95 C 160.73 41.20 154.75 40.81 152.59 36.24 C 150.40 31.23 150.45 24.50 154.39 20.33 C 157.50 17.19 163.02 17.64 165.83 20.99 C 165.72 18.11 165.74 15.23 165.76 12.35 M 159.56 23.64 C 156.34 25.48 156.41 30.13 157.59 33.22 C 158.64 35.95 162.58 36.60 164.39 34.25 C 165.92 32.03 166.00 29.02 165.30 26.48 C 164.74 24.09 161.81 22.40 159.56 23.64 Z" />
<path fill="#ffffff" opacity="1.00" d=" M 85.16 24.42 C 86.00 20.38 89.95 17.83 93.96 18.22 C 97.61 18.00 103.05 19.35 102.98 23.91 C 102.76 27.99 103.75 32.34 102.16 36.21 C 100.39 40.04 95.71 40.63 91.97 40.53 C 89.02 40.66 85.64 38.99 85.12 35.83 C 84.85 33.47 84.63 30.34 86.88 28.82 C 90.08 26.24 94.70 27.50 97.97 25.02 C 96.26 22.42 92.71 22.41 90.59 24.50 C 88.78 24.50 86.97 24.48 85.16 24.42 M 90.37 32.98 C 90.14 35.77 93.64 36.82 95.59 35.35 C 97.67 34.24 97.53 31.60 97.98 29.61 C 95.48 30.66 91.84 30.30 90.37 32.98 Z" />
<path fill="#ffffff" opacity="1.00" d=" M 107.50 19.55 C 112.82 16.55 121.97 18.27 122.53 25.45 C 120.96 25.48 119.40 25.50 117.83 25.50 C 116.03 23.34 112.21 21.15 110.14 24.22 C 111.95 27.36 116.73 26.41 119.67 28.18 C 124.49 29.90 123.88 37.49 119.51 39.39 C 115.95 40.86 111.77 40.94 108.11 39.77 C 105.28 38.82 103.86 35.84 103.83 33.01 C 105.68 33.00 107.53 33.00 109.39 33.01 C 110.15 36.77 116.37 37.23 117.34 33.44 C 113.86 31.67 109.70 31.72 106.42 29.51 C 103.20 27.02 104.10 21.47 107.50 19.55 Z" />
<path fill="#ffffff" opacity="1.00" d=" M 132.39 22.46 C 135.87 16.90 145.83 16.69 149.32 22.38 C 151.16 28.18 149.87 34.42 150.24 40.42 C 148.52 40.22 146.82 39.95 145.13 39.60 C 143.77 34.87 145.01 29.89 144.29 25.09 C 142.94 22.10 137.37 22.65 137.32 26.27 C 137.11 30.93 137.32 35.59 137.25 40.25 C 135.33 40.25 133.42 40.25 131.50 40.25 C 131.89 34.35 130.58 28.18 132.39 22.46 Z" />
<path fill="#ffffff" opacity="1.00" d=" M 173.79 22.69 C 176.38 17.94 183.03 17.07 187.50 19.48 C 190.15 20.85 191.28 23.80 192.00 26.52 L 192.00 32.05 C 191.43 35.14 189.87 38.41 186.78 39.64 C 182.02 41.73 174.95 40.23 173.22 34.82 C 172.17 30.90 171.91 26.40 173.79 22.69 M 178.62 25.78 C 177.16 29.55 177.88 35.74 182.98 35.98 C 187.45 33.50 188.00 25.85 183.34 23.32 C 181.48 22.89 179.19 23.88 178.62 25.78 Z" />
<path fill="#ffffff" opacity="1.00" d=" M 124.26 18.66 C 126.39 18.72 129.79 18.46 129.94 21.41 C 130.10 27.69 129.95 33.97 130.00 40.25 C 128.08 40.25 126.16 40.25 124.25 40.25 C 124.25 33.05 124.23 25.86 124.26 18.66 Z" />
</g>
</svg>
