<?xml version="1.0" encoding="UTF-8" ?>
<!DOCTYPE svg PUBLIC "-//W3C//DTD SVG 1.1//EN" "http://www.w3.org/Graphics/SVG/1.1/DTD/svg11.dtd">
<svg width="54pt" height="51pt" viewBox="0 0 54 51" version="1.1" xmlns="http://www.w3.org/2000/svg">
<g id="#8f1a7eff">
<path fill="#8f1a7e" opacity="1.00" d=" M 5.79 7.80 C 11.10 1.75 19.65 0.40 27.29 0.38 C 19.87 8.06 14.28 18.81 16.20 29.76 C 17.06 39.93 26.73 45.84 35.06 49.77 C 27.74 50.62 20.01 50.72 13.05 47.97 C 6.36 45.47 1.82 38.96 0.92 31.99 C -0.13 23.80 0.06 14.35 5.79 7.80 Z" />
</g>
<g id="#f6ad07ff">
<path fill="#f6ad07" opacity="1.00" d=" M 34.74 0.76 C 39.52 1.87 44.54 3.34 47.99 7.04 C 51.88 10.76 53.47 16.17 54.00 21.38 L 54.00 29.49 C 53.45 34.02 52.23 38.64 49.28 42.23 C 45.86 46.64 40.41 48.81 35.06 49.77 C 26.73 45.84 17.06 39.93 16.20 29.76 C 17.00 32.60 18.38 35.60 21.22 36.90 C 24.68 38.40 28.77 38.44 32.34 37.29 C 35.76 36.12 37.90 32.72 38.34 29.24 C 38.97 24.58 38.87 19.15 35.55 15.45 C 32.09 12.12 26.95 12.69 22.55 12.88 C 26.99 11.39 31.70 9.49 34.56 5.58 C 35.71 4.15 35.48 2.31 34.74 0.76 Z" />
</g>
</svg>
