<svg xmlns="http://www.w3.org/2000/svg" viewBox="0 0 26.89 26.89"><g id="Layer_2" data-name="Layer 2"><g id="Layer_1-2" data-name="Layer 1"><path d="M13.44,0A13.45,13.45,0,1,0,26.89,13.44,13.44,13.44,0,0,0,13.44,0Zm0,25.12A11.68,11.68,0,1,1,25.12,13.44,11.68,11.68,0,0,1,13.44,25.12Z"/><path d="M14.76,12.14a3.8,3.8,0,0,1,3.47,5.37.45.45,0,0,0,.12.61c.6.57,1.18,1.17,1.76,1.76a1,1,0,1,1-1.44,1.44c-.6-.6-1.2-1.19-1.78-1.79a.41.41,0,0,0-.55-.11,3.82,3.82,0,1,1-1.58-7.28Zm0,1.29A2.51,2.51,0,0,0,12.23,16a2.53,2.53,0,1,0,2.53-2.54Z"/><path d="M7.08,11.38c0-1.61,0-3.22,0-4.83,0-.48,0-.53.55-.53S8.76,6,9.32,6c.35,0,.5.12.5.48v9.84c0,.36-.16.5-.5.49H7.62c-.47,0-.54-.07-.55-.55v-4.9Z"/><path d="M16.84,11.91a13.69,13.69,0,0,0-1.38-.38,12.13,12.13,0,0,0-1.38-.07c0-.77,0-1.55,0-2.32,0-.11.22-.29.34-.3.66,0,1.33,0,2,0,.29,0,.4.16.4.43Z"/><path d="M10.93,13.44V10.77c0-.5.06-.56.57-.56h1a.39.39,0,0,1,.46.45v0a1.3,1.3,0,0,1-.76,1.59A5.71,5.71,0,0,0,10.93,13.44Z"/></g></g></svg>