<svg xmlns="http://www.w3.org/2000/svg" width="28.15" height="28.1" viewBox="0 0 28.15 28.1">
  <g id="Layer_2" data-name="Layer 2" transform="translate(0.02)">
    <g id="Layer_1" data-name="Layer 1">
      <path id="Path_240" data-name="Path 240" d="M14.65,28.1h-1.2A2.49,2.49,0,0,0,13,28c-.59-.08-1.19-.12-1.77-.23a14,14,0,0,1-11-11.61c-.08-.6-.17-1.2-.25-1.8v-.54a4.77,4.77,0,0,0,.13-.51c.08-.66.12-1.33.24-2A13.9,13.9,0,0,1,12,.25c.52-.07,1-.17,1.57-.25h1a4.6,4.6,0,0,0,.5.13c.63.09,1.26.13,1.88.25a14,14,0,0,1,10.93,11.5c.07.49.17,1,.25,1.46v1.41c-.08.47-.17.94-.25,1.42A13.91,13.91,0,0,1,16.17,27.85C15.66,27.92,15.15,28,14.65,28.1Zm-.6-1.58a12.52,12.52,0,0,0,12.5-12.21A12.61,12.61,0,0,0,14.12,1.56a12.48,12.48,0,1,0-.07,24.96Z" fill-rule="evenodd"/>
      <path id="Path_241" data-name="Path 241" d="M14,9.83H5.64a1.539,1.539,0,0,1-.48,0,.85.85,0,0,1-.42-.48.757.757,0,0,1,.31-.49,1.27,1.27,0,0,1,.62-.1H22.74c.35,0,.66.16.64.58s-.31.52-.67.52Z" fill-rule="evenodd"/>
      <path id="Path_242" data-name="Path 242" d="M14,19.16H5.63c-.16,0-.36.06-.48,0s-.4-.3-.41-.46a.74.74,0,0,1,.37-.49,1.23,1.23,0,0,1,.58-.05H22.45a1.539,1.539,0,0,1,.48,0c.12.05.42.32.43.49s-.26.36-.44.49-.28,0-.43,0Z" fill-rule="evenodd"/>
      <path id="Path_243" data-name="Path 243" d="M16.61,13.61a3.211,3.211,0,0,1,.07-.82l2.4,1.4-2.3,1.33a.133.133,0,0,1-.11-.09c.07-.63-.25-.74-.82-.73H9.18c-.4,0-.72,0-.72-.57s.31-.54.7-.54h7.45Z" fill-rule="evenodd"/>
    </g>
  </g>
</svg>
