<?xml version="1.0" encoding="UTF-8" ?>
<!DOCTYPE svg PUBLIC "-//W3C//DTD SVG 1.1//EN" "http://www.w3.org/Graphics/SVG/1.1/DTD/svg11.dtd">
<svg width="88pt" height="118pt" viewBox="0 0 88 118" version="1.1" xmlns="http://www.w3.org/2000/svg">
<g id="#000000ff">
<path fill="#000000" opacity="1.00" d=" M 34.65 0.46 C 53.18 10.15 69.40 25.11 78.96 43.85 C 83.46 52.96 86.36 62.90 87.02 73.06 C 88.76 85.04 86.34 98.69 77.13 107.22 C 71.44 112.94 63.62 115.84 55.83 117.30 C 67.21 108.36 72.67 93.20 71.11 78.99 C 69.25 63.81 60.24 50.30 48.63 40.71 C 50.15 54.28 47.41 68.69 39.95 80.20 C 39.08 73.71 36.32 67.00 30.87 63.07 C 28.76 73.20 21.62 81.56 20.34 91.89 C 19.02 101.42 23.73 110.77 30.41 117.29 C 22.17 115.62 14.13 111.83 8.66 105.30 C 2.19 97.89 0.08 87.62 0.48 78.02 C 1.20 65.04 8.31 53.72 15.04 43.03 C 23.47 29.83 31.22 15.89 34.65 0.46 Z" />
</g>
</svg>
