<svg xmlns="http://www.w3.org/2000/svg" viewBox="0 0 27 27"><g id="Layer_2" data-name="Layer 2"><g id="Layer_1-2" data-name="Layer 1"><path d="M13.9,20.6c-1,.5-1.52.37-1.93-.5a5.79,5.79,0,0,1,.29-6c.33-.5.67-1,1-1.5A4.71,4.71,0,0,0,13.44,7l-.27-.45C14,6,14.62,6.1,15,7a5.8,5.8,0,0,1,0,5.6c-.42.74-.94,1.42-1.42,2.12a4.58,4.58,0,0,0,0,5.38C13.66,20.24,13.76,20.39,13.9,20.6Z"/><path d="M9.17,19c-.82.53-1.53.25-1.8-.78a5,5,0,0,1,.9-4.73c.33-.4.65-.81,1-1.19a3.7,3.7,0,0,0,.61-4.46,3.33,3.33,0,0,1-.16-.4c.9-.44,1.54-.22,1.8.66a4.92,4.92,0,0,1-.73,4.59c-.21.26-.42.52-.64.77C8.32,15.6,8.18,16.36,9.17,19Z"/><path d="M17.4,7.42c.88-.52,1.55-.37,1.87.43A4.8,4.8,0,0,1,19,12.4c-.36.57-.76,1.1-1.16,1.64a3.85,3.85,0,0,0-.19,4.53c.08.12.14.25.21.38-.82.56-1.44.45-1.78-.39a5,5,0,0,1,.35-5,7.5,7.5,0,0,1,.58-.81C18.48,11.1,18.82,9.34,17.4,7.42Z"/><path d="M13.5,0A13.5,13.5,0,1,0,27,13.5,13.49,13.49,0,0,0,13.5,0Zm0,25.23A11.73,11.73,0,1,1,25.23,13.5,11.73,11.73,0,0,1,13.5,25.23Z"/></g></g></svg>