<svg xmlns="http://www.w3.org/2000/svg" viewBox="0 0 171.79 171.35"><defs><style>.cls-1{fill:#1d1d1e;}</style></defs><g id="Layer_2" data-name="Layer 2"><g id="Layer_1-2" data-name="Layer 1"><path class="cls-1" d="M76.44,4.09A13.92,13.92,0,0,1,93,1.75c3.23,2,5.75,4.86,8.39,7.53q31,30.92,62,61.9a52.36,52.36,0,0,1,6.24,6.74c2.61,3.48,2.52,8.22,1.64,12.28-1.72,4.73-5.91,7.87-9.28,11.39q-30.25,30.24-60.51,60.47c-3.36,3.32-6.52,7.35-11.23,8.75a13.93,13.93,0,0,1-13.77-3.61l-71-71A33.35,33.35,0,0,1,0,87.88V83.23c1.57-2.59,2.83-5.42,4.93-7.64Q40.69,39.85,76.44,4.09ZM79,4.76c-4,3.44-7.42,7.57-11.5,11l1.38,1.45a77.86,77.86,0,0,1,8.89-8.81c3.54-2.94,8.51-3.3,12.82-2.25,3.6.94,6.1,3.8,8.61,6.35q31.53,31.47,63,63c5.6,5.26,5.57,15,0,20.34q-32.44,32.55-65,65c-2.91,3-6.93,5.32-11.26,4.84-5.77.34-10.38-4-13.7-8.19-.47.46-1,.91-1.44,1.35,4,3,6.84,7.51,11.41,9.87a27.15,27.15,0,0,0,8.44-.09,32.86,32.86,0,0,0,7.18-6.13Q130.06,130.19,162.32,98c3.16-3.14,7.12-6.18,7.46-11-1.49-1-1.52-2.52-.23-3.75a13.07,13.07,0,0,0-3.21-5.88q-33.54-33.47-67-67C96.42,7.58,93.94,4,90,2.7,86.28,1.75,81.87,2.05,79,4.76ZM75.32,17Q45.58,46.72,15.83,76.49c-2.44,2.53-5.5,5.32-5.26,9.17-.23,4.37,3.35,7.43,6.22,10.18q30.74,30.8,61.52,61.53c1.43,1.33,3,2.52,4.49,3.74,3.5.11,7.57.51,10.09-2.48,22.88-22.78,45.64-45.67,68.51-68.46a43.17,43.17,0,0,0,0-9C139,58.62,116.4,36.2,94,13.66c-1.88-1.89-4.2-3.72-7-3.55C81.89,9.39,78.52,13.81,75.32,17Zm-9.22.24C48.08,35.67,29.65,53.76,11.41,72c-3.62,3.85-9,7.65-8.59,13.56-.35,4.58,3,8.22,6.16,11.07q29.3,29.21,58.52,58.48c.87.92,1.7,1.88,2.5,2.86l1.56-1.23a59.68,59.68,0,0,1-6-5.68Q37.83,123.4,10.13,95.66c-5.55-5.49-5.24-15.17.45-20.43,19-18.9,37.68-38.09,56.94-56.68Z"/><path class="cls-1" d="M67.92,33.9A16.72,16.72,0,0,1,74.59,33a23.68,23.68,0,0,1,2.81,3.19c.45,1.69-.22,3.69.89,5.18,2.63,2.08,5.38,4,7.87,6.28,2.56-1.92,4.82-4.28,7.66-5.81l.48.18.2.07c0-2.55.09-5.15,1.35-7.45.87-.53,1.73-1.07,2.59-1.62,2,0,4-.2,5.83.77-2.32.87-4.66,1.7-7,2.62.41,1.66.84,3.32,1.26,5,2.89.3,5.63-.73,8.32-1.62-1.3,3.93-6.39,6.64-9.76,3.41-2.15,1.61-4,4.4-6.93,4.29a10.16,10.16,0,0,0,3.4-4.09c-4.27,2.88-8,6.45-12.09,9.57a22.79,22.79,0,0,0-5,5c4.76-2.88,8.83-6.73,13.24-10.08-.08.71-.26,2.13-.35,2.84,3.1,1.73,5.65,4.23,8.39,6.45l-1.16,1.17c-.13.38-.4,1.13-.54,1.51-3.26-2.39-6.73-4.64-9.31-7.81-3.81,2.24-6.67,5.78-10.7,7.7-1.19,1.84.47,4.88-1.76,6.29-1.77,1.87-4.54,1.36-6.64.42,1.89-.5,3.79-1,5.68-1.53,0-1.71.56-3.74-1.16-4.87-2.27-.41-4.32.91-6.43,1.49.9-1.4,1.75-3,3.33-3.75,1.81-1.16,3.78.38,5.53.88,1.52-4.07,5.9-5.88,8.77-8.86-2.27-2.13-5.53-3.58-6.62-6.68l.5,0,0-.51-.39.17c-1.85.9-3.65,2.25-5.85,1.8-2.71,0-4-2.73-5.23-4.71,2.06.68,4.13,1.36,6.24,1.92L74.55,41a36.35,36.35,0,0,0-.19-5.52C72.19,35.08,70,34.51,67.92,33.9ZM79.57,44.36c1.31,2.12,3.26,4.08,5.81,4.52a12.37,12.37,0,0,0-5.81-4.52Zm8,6.07c1.35,3.39,5,5.21,7.88,7.31l-.6-1.83C92.26,54.36,90.14,52.12,87.61,50.43Z"/><path class="cls-1" d="M97.36,58.52c2.48-1.19,5.18-1.56,7.64-.09q.9,1.62,1.83,3.21c-2.3-1-4.71-2-7.29-1.54-.1,1.61-.19,3.21-.28,4.82q2.92.67,5.82,1.5c-1.64.46-3.34,1.13-5.06.72A5.56,5.56,0,0,1,97,60C97.06,59.66,97.26,58.9,97.36,58.52Z"/><path class="cls-1" d="M134.15,66.66l-.93-1.35a26.31,26.31,0,0,0,5.06.9c5.29,6.51,5.55,15.51,5.28,23.51-.46,5.9-1.42,12.38-5.83,16.74-1.49-.14-3-.28-4.47-.51,3.69-3,4.5-8,5.32-12.39C139.64,84.53,139.5,74.42,134.15,66.66Z"/><path class="cls-1" d="M34.21,67.72c1-2.3,3.86-1.57,5.86-2l-.26.42a29.15,29.15,0,0,0-5,16.57c-.34,8,.06,16.65,5,23.31l.35.54c-1.78-.44-4.28.32-5.48-1.42-3.93-5.65-4.34-12.81-4.75-19.46C30.27,79.55,30.87,73,34.21,67.72Z"/><path class="cls-1" d="M40,68c1.51-1.39,3.47-2.58,5.61-2a12.47,12.47,0,0,1,4.27,8,39.34,39.34,0,0,0-5.32,0c-4.94,6.14-3.66,15-1.82,22.1l2,2,5.29-.14c-.87,3-1.8,6.29-4.53,8.14-2.1.67-4.05-.57-5.45-2-3-5.78-3.67-12.37-4.09-18.78,1.34.92,2.67,1.85,4,2.74a52.55,52.55,0,0,0-.14-6l-2.09,3.29-1.57-2C36.76,78.1,37.61,72.8,40,68Zm4.08-.48c-1.69,1.62-1.17,3.92.13,5.59C46.67,72.18,47.41,67.58,44.11,67.55Zm.55,37.16c1.69-1.36,2.69-4.42.19-5.56C42.05,100.11,42.81,103.19,44.66,104.71Z"/><path class="cls-1" d="M127.51,66.3c1.54-.76,3.35-.2,4.93.17,4.5,6.42,5,14.56,4.78,22.14-.19,6-1.25,12.4-5.08,17.27a9.18,9.18,0,0,1-3.86.33c-2.67-1.93-3.62-5.27-5.06-8.07,2,0,3.93,0,5.9-.06.71-1,1.43-2,2.16-3a31.35,31.35,0,0,0-1.16-20.84c-2.09-.18-4.18-.27-6.27-.35C124.61,71.23,125.31,68.24,127.51,66.3Zm-.62,3.9L128.37,73a3.38,3.38,0,0,0,1.55-5.38C128,67,127.61,69,126.89,70.2Zm7.22,12c-.79,1.58-1.8,5.11.71,5.39C137,86.26,136,83.34,134.11,82.22Zm-6.06,17.45-1.29,2.18a12.61,12.61,0,0,0,2.22,2.56,27,27,0,0,0,2.22-2.55l-1.72-2.71Z"/><path class="cls-1" d="M46.49,77c26.85,0,53.69.15,80.53,0,3.34,5.35,3.83,13.21-.22,18.3-11.75-.31-23.51,0-35.27-.16-1.21-.94-2.44-1.87-3.67-2.78,2.28-1,6.49-.39,6.89-3.62-3.29-1.31-5.4-4.7-9-5.34.69,1.64,1.47,3.25,2.24,4.86-2.88,1.09-5.75,2.22-8.63,3.28.49,1.24,1,2.48,1.47,3.73-10.3-.2-20.6-.09-30.9-.06A11.06,11.06,0,0,1,46,94.76C43.7,89.19,43.47,82.39,46.49,77Z"/><path class="cls-1" d="M86.7,99.77c2.2,8.44,10.61,15.13,8.79,24.45-2,6.86-12.44,8-16.16,2-3.26-5-.23-10.94,2.49-15.45C83.67,107.2,86,103.77,86.7,99.77Zm.48,5.8c.28,6,4.62,11.09,3.74,17.16-.68,1.89-2.32,3.19-3.7,4.57.89-.24,1.78-.47,2.68-.69,2.19-1.63,3.8-4.28,3-7.1C91.76,114.58,88.84,110.33,87.18,105.57Z"/></g></g></svg>