<svg xmlns="http://www.w3.org/2000/svg" viewBox="0 0 41.49 30.07"><defs><style>.cls-1{fill-rule:evenodd;}</style></defs><g id="Layer_2" data-name="Layer 2"><g id="Layer_1-2" data-name="Layer 1"><path class="cls-1" d="M17.5,30.07V12.17a4.34,4.34,0,0,1-2.41.17A4.54,4.54,0,0,1,13,11.23c-1.86,1.64-3.76,1.54-5.69.11A4.44,4.44,0,0,1,5,12.41a2.84,2.84,0,0,1-.65,0,.65.65,0,0,1-.6-.66.61.61,0,0,1,.6-.65,3.35,3.35,0,0,0,2.42-1.08.73.73,0,0,1,1,0c.14.11.27.23.41.33A2.82,2.82,0,0,0,12.34,10c.6-.62.84-.6,1.41,0a2.76,2.76,0,0,0,4.43-.14.63.63,0,0,1,1.14,0,2.8,2.8,0,0,0,4.15.52c.14-.11.27-.23.4-.35a.78.78,0,0,1,1.13,0,6.68,6.68,0,0,0,1.15.75,2.4,2.4,0,0,0,2.65-.24,6.68,6.68,0,0,0,.8-.7.69.69,0,0,1,1.17,0,2.94,2.94,0,0,0,2.4,1.17A2.55,2.55,0,0,0,35.23,10c.46-.62.86-.62,1.31,0a2.54,2.54,0,0,0,1.93,1.07c.65.05,1,.3.93.73s-.42.67-1.06.61a4.15,4.15,0,0,1-2.44-1.1,4.17,4.17,0,0,1-5.74-.07l-.25.16a3.89,3.89,0,0,1-5,.19.62.62,0,0,0-.81,0,1.05,1.05,0,0,0-.57,1.12c.05.65,0,1.3,0,2H20.26v.68h3.21V19.8h-3.2v.8h3.2v4.31h-3.2v.78h3.2v4.38Z"/><path class="cls-1" d="M17.51,9.2V0h6V4.36H20.27v.76h3.19a2.9,2.9,0,0,1,0,.38c0,1.09,0,2.18,0,3.27a.78.78,0,0,1-.25.49,2.73,2.73,0,0,1-3.86-.63.69.69,0,0,0-1.23,0c-.18.22-.37.42-.55.64Z"/><path class="cls-1" d="M33.69,16.12c-2,1.33-2.47,1.34-4.83.09a3.6,3.6,0,0,1-2.26.9c-.46,0-.71-.18-.72-.53s.23-.57.69-.58a2.6,2.6,0,0,0,1.74-.78c.44-.4.63-.41,1.09,0l.23.18a2.37,2.37,0,0,0,3.46-.25c.57-.55.72-.54,1.25,0A2.33,2.33,0,0,0,38,15c.32-.42.69-.43,1,0a2.25,2.25,0,0,0,1.83,1c.42,0,.65.26.63.6s-.26.53-.69.52a3.17,3.17,0,0,1-2-.7l-.28-.21C36.56,17.46,35.58,17.45,33.69,16.12Z"/><path class="cls-1" d="M12.68,16.19c-1.95,1.28-2.94,1.27-4.87-.07l-.26.18a3.3,3.3,0,0,1-4.18.13.52.52,0,0,0-.73,0,3.05,3.05,0,0,1-2,.67c-.39,0-.63-.21-.63-.54A.54.54,0,0,1,.61,16a2.68,2.68,0,0,0,1.82-.8c.44-.39.63-.39,1.1,0,.18.14.37.28.56.4a2.31,2.31,0,0,0,3.13-.49c.55-.54.71-.53,1.24.05A2.34,2.34,0,0,0,12.17,15c.28-.43.68-.42,1,0A2.24,2.24,0,0,0,15,16c.45,0,.68.25.66.61s-.27.52-.7.51A3.36,3.36,0,0,1,12.68,16.19Z"/></g></g></svg>