<svg xmlns="http://www.w3.org/2000/svg" viewBox="0 0 27.57 27.57"><defs><style>.cls-1{fill-rule:evenodd;}</style></defs><g id="Layer_2" data-name="Layer 2"><g id="Layer_1-2" data-name="Layer 1"><path class="cls-1" d="M27.57,13.79A13.79,13.79,0,1,1,13.81,0,13.8,13.8,0,0,1,27.57,13.79Zm-25,0A11.23,11.23,0,1,0,13.9,2.56,11.25,11.25,0,0,0,2.56,13.77Z"/><path class="cls-1" d="M18,16.16h5a9.52,9.52,0,0,1-18.44,0h5a4.23,4.23,0,0,0,1.83,3.5,4.17,4.17,0,0,0,2.67.75,4.09,4.09,0,0,0,2-.65,4.31,4.31,0,0,0,1.47-1.56A4.52,4.52,0,0,0,18,16.16Z"/><path class="cls-1" d="M10.15,9c.33.39.65.79,1,1.18.84,1,1.68,2,2.51,3.08a1,1,0,0,0,.65.42,2.6,2.6,0,0,1,.13,5.08,2.61,2.61,0,0,1-3-3.54,1,1,0,0,0,.06-.66q-.66-2.65-1.3-5.32l0-.21Z"/><path class="cls-1" d="M20.49,10.45,20,9.65l1.78-1,.47.81Z"/><path class="cls-1" d="M17.12,7.08l1-1.79.81.46-1,1.8Z"/><path class="cls-1" d="M5.75,8.61l1.79,1c-.15.28-.3.54-.46.81l-1.79-1Z"/><path class="cls-1" d="M8.61,5.75l.81-.46,1,1.79-.8.47Z"/><path class="cls-1" d="M14.23,6.3h-.88v-2h.88Z"/><path class="cls-1" d="M6.3,13.34v.88h-2v-.88Z"/><path class="cls-1" d="M21.28,13.34h2v.89h-2Z"/></g></g></svg>