<svg xmlns="http://www.w3.org/2000/svg" viewBox="0 0 26.39 31.81"><g id="Layer_2" data-name="Layer 2"><g id="Layer_1-2" data-name="Layer 1"><path d="M24.38,4.16C19.55,4.16,13.23,0,13.19,0S6.84,4.16,2,4.16c-.69,0-1.36,0-2-.1v7.79A20.73,20.73,0,0,0,9.41,29.42l3.78,2.39L17,29.42a20.71,20.71,0,0,0,9.42-17.57V4.06C25.74,4.12,25.07,4.16,24.38,4.16Zm-.21,7.69a18.58,18.58,0,0,1-8.38,15.7l-2.6,1.63L10.6,27.55a18.58,18.58,0,0,1-8.38-15.7V6.37A20.49,20.49,0,0,0,10.35,4.1s1.55-.75,2.84-1.5C14.49,3.35,16,4.09,16,4.1a20.49,20.49,0,0,0,8.13,2.27Z"/><path d="M21.57,7.19v3.64a18.19,18.19,0,0,1-8.21,15.36L12.1,27l.85.54,2.31-1.46A16.48,16.48,0,0,0,22.7,12.14V7.27A8.71,8.71,0,0,1,21.57,7.19Z"/><path d="M17.83,10.1l-6.1,5.71L10,12.91a.24.24,0,0,0-.37-.06l-2.24,1.8a.23.23,0,0,0-.05.32l3.07,5a1.11,1.11,0,0,0,1.71.22l7.85-7.38a.35.35,0,0,0,0-.47l-1.62-2.18A.35.35,0,0,0,17.83,10.1Z"/></g></g></svg>