<svg xmlns="http://www.w3.org/2000/svg" viewBox="0 0 20.4 41.39"><defs><style>.cls-1{fill-rule:evenodd;}</style></defs><g id="Layer_2" data-name="Layer 2"><g id="Layer_1-2" data-name="Layer 1"><path class="cls-1" d="M2.84,16.36V3.57A3.34,3.34,0,0,1,3.92,1,3.33,3.33,0,0,1,7.71.31,3.38,3.38,0,0,1,9.85,3.6c0,3.31,0,6.62,0,9.93q0,7.91,0,15.81a.7.7,0,0,0,.31.62,6,6,0,0,1,2.4,6.47,6.07,6.07,0,0,1-4.95,4.82A6.36,6.36,0,0,1,0,34.77,6.12,6.12,0,0,1,2.53,30a.73.73,0,0,0,.32-.65Q2.84,22.83,2.84,16.36Zm1.3.29q0,6.53,0,13a1.17,1.17,0,0,1-.59,1.12,5,5,0,0,0-2.11,5.48A5.12,5.12,0,0,0,6,40.07a5.06,5.06,0,0,0,5.21-3.46,5,5,0,0,0-2.11-5.84,1,1,0,0,1-.53-1q0-8.46,0-16.92,0-4.63,0-9.27a2.2,2.2,0,1,0-4.4,0Q4.14,10.15,4.14,16.65Z"/><path class="cls-1" d="M16.29,14.32H13.1c-.54,0-.82-.23-.82-.66s.28-.65.82-.65h6.5c.53,0,.81.24.8.67s-.29.63-.8.64Z"/><path class="cls-1" d="M16.35,23.4h-3.1a2,2,0,0,1-.42,0,.64.64,0,0,1,.09-1.27h6.7c.51,0,.79.23.78.64s-.28.65-.78.65Z"/><path class="cls-1" d="M16.34,5.23H13.11c-.54,0-.83-.24-.83-.65s.3-.65.84-.65h6.41a2.09,2.09,0,0,1,.25,0,.64.64,0,0,1,.61.7.61.61,0,0,1-.66.59Z"/><path class="cls-1" d="M14.29,9.77H13a.65.65,0,1,1,0-1.3c.89,0,1.79,0,2.68,0a.63.63,0,0,1,.66.65.65.65,0,0,1-.68.64Z"/><path class="cls-1" d="M14.29,17.56h1.32a.65.65,0,0,1,.68.63.64.64,0,0,1-.65.66q-1.37,0-2.73,0a.62.62,0,0,1-.63-.67.63.63,0,0,1,.68-.62Z"/><path class="cls-1" d="M14.28,27.92H13a.64.64,0,0,1-.67-.63.63.63,0,0,1,.66-.65c.89,0,1.79,0,2.68,0a.61.61,0,0,1,.65.65.63.63,0,0,1-.67.63Z"/><path class="cls-1" d="M7,21.39q0,4.7,0,9.39c0,.4.07.62.52.76a3.53,3.53,0,0,1-1.06,6.88,3.53,3.53,0,0,1-1.12-6.91c.37-.1.44-.27.44-.63V11.93c0-.55.16-.79.55-.82s.67.2.68.72v9.56Z"/></g></g></svg>