<?xml version="1.0" encoding="UTF-8" ?>
<!DOCTYPE svg PUBLIC "-//W3C//DTD SVG 1.1//EN" "http://www.w3.org/Graphics/SVG/1.1/DTD/svg11.dtd">
<svg width="175pt" height="175pt" viewBox="0 0 175 175" version="1.1" xmlns="http://www.w3.org/2000/svg">
<g id="#010101ff">
<path fill="#010101" opacity="1.00" d=" M 37.13 21.09 C 38.29 17.97 41.79 16.34 44.98 16.45 C 73.34 16.44 101.70 16.46 130.06 16.43 C 133.65 16.20 137.73 18.22 138.41 22.03 C 138.35 25.86 134.33 28.25 130.85 28.24 C 122.09 28.35 113.33 28.21 104.57 28.31 C 104.12 31.25 105.71 35.09 103.66 37.50 C 100.45 38.33 96.99 37.63 93.69 37.83 C 93.62 43.23 93.67 48.63 93.68 54.03 C 89.64 54.09 85.60 54.07 81.57 54.04 C 81.59 48.61 81.63 43.17 81.55 37.74 C 78.06 37.52 74.16 38.71 70.97 37.11 C 70.31 34.21 70.73 31.20 70.65 28.26 C 61.78 28.23 52.90 28.40 44.04 28.21 C 40.37 28.22 36.13 25.15 37.13 21.09 Z" />
<path fill="#010101" opacity="1.00" d=" M 57.50 58.81 C 57.88 57.31 59.65 57.18 60.92 57.21 C 78.97 57.20 97.02 57.23 115.06 57.19 C 116.45 57.16 118.50 57.21 118.71 59.01 C 118.93 62.41 118.89 65.83 118.69 69.23 C 116.63 72.17 112.19 70.21 109.19 70.70 C 109.25 72.99 108.73 75.39 109.41 77.62 C 116.21 82.08 121.47 88.35 127.60 93.62 C 129.61 93.58 131.63 93.55 133.64 93.54 C 133.56 91.07 133.58 88.60 133.89 86.15 C 137.52 86.16 141.15 86.15 144.79 86.18 C 145.32 99.13 144.88 112.11 145.02 125.08 C 144.88 131.90 145.37 138.75 144.66 145.55 C 141.74 145.60 138.81 145.74 135.88 145.63 C 131.88 146.04 134.26 140.41 133.66 138.18 C 131.44 138.15 129.22 138.13 127.00 138.11 C 119.51 145.00 112.86 153.67 102.70 156.72 C 93.13 159.41 82.64 159.37 73.12 156.43 C 63.24 153.19 57.02 144.39 49.21 138.11 C 46.64 138.14 44.08 138.15 41.51 138.18 C 41.21 140.53 42.31 143.50 40.82 145.51 C 37.34 145.83 33.85 145.59 30.37 145.53 C 30.14 125.78 30.26 106.02 30.30 86.26 C 33.84 86.20 37.40 85.97 40.94 86.25 C 42.32 88.23 41.19 91.21 41.45 93.54 C 43.73 93.55 46.00 93.58 48.27 93.63 C 54.39 88.52 59.64 82.34 66.46 78.10 C 66.53 75.62 66.53 73.13 66.53 70.65 C 63.71 70.26 59.31 72.14 57.51 69.16 C 57.20 65.73 57.20 62.25 57.50 58.81 Z" />
<path fill="#010101" opacity="1.00" d=" M 13.88 86.37 C 17.63 86.04 21.38 86.15 25.14 86.21 C 25.33 105.97 25.25 125.73 25.18 145.49 C 21.40 145.66 17.60 145.84 13.84 145.33 C 13.83 142.94 13.86 140.56 13.83 138.18 C 10.60 138.08 7.36 138.29 4.13 138.05 C 2.26 137.06 2.55 134.82 2.53 133.06 C 2.72 120.41 2.37 107.74 2.70 95.10 C 5.41 92.10 10.18 94.09 13.78 93.61 C 13.84 91.20 13.83 88.78 13.88 86.37 Z" />
<path fill="#010101" opacity="1.00" d=" M 149.91 86.38 C 153.67 86.03 157.45 86.09 161.22 86.32 C 161.30 88.74 161.31 91.18 161.32 93.61 C 164.89 94.16 169.85 92.01 172.41 95.12 C 172.76 108.46 172.47 121.84 172.55 135.19 C 172.80 136.65 171.66 137.93 170.24 138.08 C 167.27 138.26 164.30 138.10 161.33 138.19 C 161.29 140.56 161.30 142.93 161.28 145.31 C 157.50 145.89 153.66 145.70 149.87 145.40 C 149.95 125.73 149.88 106.05 149.91 86.38 Z" />
</g>
</svg>
